<svg width="20" height="20" viewBox="0 0 20 20" fill="none" xmlns="http://www.w3.org/2000/svg">
<path d="M15.1571 15.1001C13.8771 15.1001 12.8218 16.1837 12.8218 17.55C12.8218 18.8928 13.8547 20 15.1571 20C16.437 20 17.4924 18.9164 17.4924 17.55C17.4699 16.2073 16.437 15.1001 15.1571 15.1001Z" fill="white"/>
<path d="M19.2662 3.41578C19.2212 3.41578 19.1539 3.39223 19.0865 3.39223H4.94004L4.71549 1.8139C4.58076 0.777385 3.72748 0 2.71702 0H0.898189C0.404185 0 0 0.424028 0 0.942285C0 1.46054 0.404185 1.88457 0.898189 1.88457H2.71702C2.8293 1.88457 2.91911 1.9788 2.94157 2.09658L4.33376 12.0377C4.5134 13.2862 5.54632 14.2285 6.75887 14.2285H16.1C17.2677 14.2285 18.2781 13.3569 18.5251 12.1555L19.9847 4.49941C20.0745 4.00471 19.7602 3.51001 19.2662 3.41578Z" fill="white"/>
<path d="M7.11804 15.1001C5.81566 15.1708 4.82766 16.3015 4.87257 17.6443C4.91748 18.9399 5.92794 19.9764 7.16295 19.9764H7.20786C8.48778 19.9058 9.49824 18.775 9.43088 17.4323C9.38597 16.1366 8.35305 15.1001 7.11804 15.1001Z" fill="white"/>
</svg>
