<svg width="22" height="22" viewBox="0 0 22 22" fill="none" xmlns="http://www.w3.org/2000/svg">
<path d="M6.41699 11.9165V20.1665C6.41699 20.4096 6.32041 20.6428 6.14851 20.8147C5.9766 20.9866 5.74344 21.0832 5.50033 21.0832H1.83366C1.59054 21.0832 1.35739 20.9866 1.18548 20.8147C1.01357 20.6428 0.916992 20.4096 0.916992 20.1665V11.9165C0.916992 11.6734 1.01357 11.4402 1.18548 11.2683C1.35739 11.0964 1.59054 10.9998 1.83366 10.9998H5.50033C5.74344 10.9998 5.9766 11.0964 6.14851 11.2683C6.32041 11.4402 6.41699 11.6734 6.41699 11.9165ZM12.8337 0.916504H9.16699C8.92388 0.916504 8.69072 1.01308 8.51881 1.18499C8.3469 1.3569 8.25033 1.59006 8.25033 1.83317V20.1665C8.25033 20.4096 8.3469 20.6428 8.51881 20.8147C8.69072 20.9866 8.92388 21.0832 9.16699 21.0832H12.8337C13.0768 21.0832 13.3099 20.9866 13.4818 20.8147C13.6537 20.6428 13.7503 20.4096 13.7503 20.1665V1.83317C13.7503 1.59006 13.6537 1.3569 13.4818 1.18499C13.3099 1.01308 13.0768 0.916504 12.8337 0.916504ZM20.167 5.49984H16.5003C16.2572 5.49984 16.0241 5.59641 15.8521 5.76832C15.6802 5.94023 15.5837 6.17339 15.5837 6.4165V20.1665C15.5837 20.4096 15.6802 20.6428 15.8521 20.8147C16.0241 20.9866 16.2572 21.0832 16.5003 21.0832H20.167C20.4101 21.0832 20.6433 20.9866 20.8152 20.8147C20.9871 20.6428 21.0837 20.4096 21.0837 20.1665V6.4165C21.0837 6.17339 20.9871 5.94023 20.8152 5.76832C20.6433 5.59641 20.4101 5.49984 20.167 5.49984Z" fill="white"/>
</svg>
